<?xml version="1.0" encoding="utf-8"?>
<!-- Generator: Adobe Illustrator 26.5.0, SVG Export Plug-In . SVG Version: 6.00 Build 0)  -->
<svg version="1.1" id="图层_1" xmlns="http://www.w3.org/2000/svg" xmlns:xlink="http://www.w3.org/1999/xlink" x="0px" y="0px"
	 viewBox="0 0 256 256" style="enable-background:new 0 0 256 256;" xml:space="preserve">
<style type="text/css">
	.st0{fill:#707070;}
</style>
<path class="st0" d="M131.1,128l46.3-46.3c0.8-0.9,0.8-2.2,0-3.1c-0.9-0.8-2.2-0.8-3.1,0L128,125L81.7,78.7c-0.8-0.9-2.2-0.9-3.1,0
	c-0.9,0.8-0.9,2.2,0,3.1l46.3,46.3l-46.3,46.3c-0.8,0.9-0.8,2.2,0,3.1c0.4,0.4,1,0.6,1.5,0.6c0.6,0,1.1-0.2,1.6-0.6l46.3-46.3
	l46.3,46.3c0.4,0.4,1,0.6,1.6,0.6c0.6,0,1.1-0.2,1.5-0.6c0.9-0.8,0.9-2.2,0-3.1L131.1,128z"/>
</svg>
