<?xml version="1.0" encoding="utf-8"?>
<!-- Generator: Adobe Illustrator 26.5.0, SVG Export Plug-In . SVG Version: 6.00 Build 0)  -->
<svg version="1.1" id="图层_1" xmlns="http://www.w3.org/2000/svg" xmlns:xlink="http://www.w3.org/1999/xlink" x="0px" y="0px"
	 viewBox="0 0 512 512" style="enable-background:new 0 0 512 512;" xml:space="preserve">
<style type="text/css">
	.st0{fill:#999999;}
	.st1{fill:#A0A0A0;}
	.st2{font-family:'Consolas';}
	.st3{font-size:438.7312px;}
</style>
<g>
	<path class="st0" d="M256,21c31.73,0,62.51,6.21,91.47,18.46c27.98,11.84,53.12,28.78,74.7,50.37s38.53,46.72,50.37,74.7
		C484.79,193.49,491,224.27,491,256s-6.21,62.51-18.46,91.47c-11.84,27.98-28.78,53.12-50.37,74.7s-46.72,38.53-74.7,50.37
		C318.51,484.79,287.73,491,256,491s-62.51-6.21-91.47-18.46c-27.98-11.84-53.12-28.78-74.7-50.37s-38.53-46.72-50.37-74.7
		C27.21,318.51,21,287.73,21,256s6.21-62.51,18.46-91.47c11.84-27.98,28.78-53.12,50.37-74.7s46.72-38.53,74.7-50.37
		C193.49,27.21,224.27,21,256,21 M256,6C117.93,6,6,117.93,6,256s111.93,250,250,250s250-111.93,250-250S394.07,6,256,6L256,6z"/>
</g>
<text transform="matrix(1 0 0 1 135.7842 397.6621)" class="st1 st2 st3">i</text>
</svg>
